<svg width="18" height="18" viewBox="0 0 18 18" fill="none" xmlns="http://www.w3.org/2000/svg">
<path d="M7.39935 8.04984C7.44102 7.77484 7.53268 7.53317 7.64935 7.32484C7.76602 7.1165 7.93268 6.9415 8.14102 6.80817C8.34102 6.68317 8.59102 6.62484 8.89935 6.6165C9.09102 6.62484 9.26602 6.65817 9.42435 6.72484C9.59102 6.79984 9.74102 6.89984 9.85768 7.02484C9.97435 7.14984 10.066 7.29984 10.141 7.4665C10.216 7.63317 10.2493 7.8165 10.2577 7.99984H11.7493C11.7327 7.60817 11.6577 7.24984 11.516 6.92484C11.3743 6.59984 11.1827 6.3165 10.9327 6.08317C10.6827 5.84984 10.3827 5.6665 10.0327 5.53317C9.68268 5.39984 9.29935 5.3415 8.87435 5.3415C8.33268 5.3415 7.85768 5.43317 7.45768 5.62484C7.05768 5.8165 6.72435 6.0665 6.45768 6.3915C6.19102 6.7165 5.99102 7.0915 5.86602 7.52484C5.74102 7.95817 5.66602 8.40817 5.66602 8.8915V9.1165C5.66602 9.59984 5.73268 10.0498 5.85768 10.4832C5.98268 10.9165 6.18268 11.2915 6.44935 11.6082C6.71602 11.9248 7.04935 12.1832 7.44935 12.3665C7.84935 12.5498 8.32435 12.6498 8.86602 12.6498C9.25768 12.6498 9.62435 12.5832 9.96601 12.4582C10.3077 12.3332 10.6077 12.1582 10.866 11.9332C11.1243 11.7082 11.3327 11.4498 11.4827 11.1498C11.6327 10.8498 11.7243 10.5332 11.7327 10.1915H10.241C10.2327 10.3665 10.191 10.5248 10.116 10.6748C10.041 10.8248 9.94102 10.9498 9.81602 11.0582C9.69102 11.1665 9.54935 11.2498 9.38268 11.3082C9.22435 11.3665 9.05768 11.3832 8.88268 11.3915C8.58268 11.3832 8.33268 11.3248 8.14102 11.1998C7.93268 11.0665 7.76602 10.8915 7.64935 10.6832C7.53268 10.4748 7.44102 10.2248 7.39935 9.94984C7.35768 9.67484 7.33268 9.3915 7.33268 9.1165V8.8915C7.33268 8.59984 7.35768 8.32484 7.39935 8.04984ZM8.99935 0.666504C4.39935 0.666504 0.666016 4.39984 0.666016 8.99984C0.666016 13.5998 4.39935 17.3332 8.99935 17.3332C13.5993 17.3332 17.3327 13.5998 17.3327 8.99984C17.3327 4.39984 13.5993 0.666504 8.99935 0.666504ZM8.99935 15.6665C5.32435 15.6665 2.33268 12.6748 2.33268 8.99984C2.33268 5.32484 5.32435 2.33317 8.99935 2.33317C12.6743 2.33317 15.666 5.32484 15.666 8.99984C15.666 12.6748 12.6743 15.6665 8.99935 15.6665Z" fill="white"/>
</svg>
