<svg width="20" height="20" viewBox="0 0 20 20" fill="none" xmlns="http://www.w3.org/2000/svg">
<mask id="mask0_365_891" style="mask-type:alpha" maskUnits="userSpaceOnUse" x="0" y="0" width="20" height="20">
<rect width="20" height="20" fill="#D9D9D9"/>
</mask>
<g mask="url(#mask0_365_891)">
<path d="M10.0007 13.333C11.0423 13.333 11.9277 12.9684 12.6569 12.2393C13.3861 11.5101 13.7507 10.6247 13.7507 9.58301C13.7507 8.54134 13.3861 7.65592 12.6569 6.92676C11.9277 6.19759 11.0423 5.83301 10.0007 5.83301C8.95898 5.83301 8.07357 6.19759 7.3444 6.92676C6.61523 7.65592 6.25065 8.54134 6.25065 9.58301C6.25065 10.6247 6.61523 11.5101 7.3444 12.2393C8.07357 12.9684 8.95898 13.333 10.0007 13.333ZM10.0007 11.833C9.37565 11.833 8.8444 11.6143 8.4069 11.1768C7.9694 10.7393 7.75065 10.208 7.75065 9.58301C7.75065 8.95801 7.9694 8.42676 8.4069 7.98926C8.8444 7.55176 9.37565 7.33301 10.0007 7.33301C10.6257 7.33301 11.1569 7.55176 11.5944 7.98926C12.0319 8.42676 12.2507 8.95801 12.2507 9.58301C12.2507 10.208 12.0319 10.7393 11.5944 11.1768C11.1569 11.6143 10.6257 11.833 10.0007 11.833ZM10.0007 15.833C7.97287 15.833 6.12565 15.267 4.45898 14.1351C2.79232 13.0031 1.58398 11.4858 0.833984 9.58301C1.58398 7.68023 2.79232 6.16287 4.45898 5.03092C6.12565 3.89898 7.97287 3.33301 10.0007 3.33301C12.0284 3.33301 13.8757 3.89898 15.5423 5.03092C17.209 6.16287 18.4173 7.68023 19.1673 9.58301C18.4173 11.4858 17.209 13.0031 15.5423 14.1351C13.8757 15.267 12.0284 15.833 10.0007 15.833ZM10.0007 14.1663C11.5701 14.1663 13.0111 13.7531 14.3236 12.9268C15.6361 12.1004 16.6395 10.9858 17.334 9.58301C16.6395 8.18023 15.6361 7.06565 14.3236 6.23926C13.0111 5.41287 11.5701 4.99967 10.0007 4.99967C8.43121 4.99967 6.99023 5.41287 5.67773 6.23926C4.36523 7.06565 3.36176 8.18023 2.66732 9.58301C3.36176 10.9858 4.36523 12.1004 5.67773 12.9268C6.99023 13.7531 8.43121 14.1663 10.0007 14.1663Z" fill="#239C5B"/>
</g>
</svg>
