<svg width="18" height="18" viewBox="0 0 18 18" fill="none" xmlns="http://www.w3.org/2000/svg">
<path d="M7.33268 12.3332H10.666C10.9021 12.3332 11.1 12.2533 11.2598 12.0936C11.4195 11.9339 11.4993 11.7359 11.4993 11.4998V9.83317H9.83268V10.6665H8.16602V7.33317H9.83268V8.1665H11.4993V6.49984C11.4993 6.26373 11.4195 6.06581 11.2598 5.90609C11.1 5.74636 10.9021 5.6665 10.666 5.6665H7.33268C7.09657 5.6665 6.89865 5.74636 6.73893 5.90609C6.57921 6.06581 6.49935 6.26373 6.49935 6.49984V11.4998C6.49935 11.7359 6.57921 11.9339 6.73893 12.0936C6.89865 12.2533 7.09657 12.3332 7.33268 12.3332ZM8.99935 17.3332C7.84657 17.3332 6.76324 17.1144 5.74935 16.6769C4.73546 16.2394 3.85352 15.6457 3.10352 14.8957C2.35352 14.1457 1.75977 13.2637 1.32227 12.2498C0.884766 11.2359 0.666016 10.1526 0.666016 8.99984C0.666016 7.84706 0.884766 6.76373 1.32227 5.74984C1.75977 4.73595 2.35352 3.854 3.10352 3.104C3.85352 2.354 4.73546 1.76025 5.74935 1.32275C6.76324 0.885254 7.84657 0.666504 8.99935 0.666504C10.1521 0.666504 11.2355 0.885254 12.2493 1.32275C13.2632 1.76025 14.1452 2.354 14.8952 3.104C15.6452 3.854 16.2389 4.73595 16.6764 5.74984C17.1139 6.76373 17.3327 7.84706 17.3327 8.99984C17.3327 10.1526 17.1139 11.2359 16.6764 12.2498C16.2389 13.2637 15.6452 14.1457 14.8952 14.8957C14.1452 15.6457 13.2632 16.2394 12.2493 16.6769C11.2355 17.1144 10.1521 17.3332 8.99935 17.3332ZM8.99935 15.6665C10.8605 15.6665 12.4368 15.0207 13.7285 13.729C15.0202 12.4373 15.666 10.8609 15.666 8.99984C15.666 7.13873 15.0202 5.56234 13.7285 4.27067C12.4368 2.979 10.8605 2.33317 8.99935 2.33317C7.13824 2.33317 5.56185 2.979 4.27018 4.27067C2.97852 5.56234 2.33268 7.13873 2.33268 8.99984C2.33268 10.8609 2.97852 12.4373 4.27018 13.729C5.56185 15.0207 7.13824 15.6665 8.99935 15.6665Z" fill="white"/>
</svg>
