<svg width="24" height="24" viewBox="0 0 24 24" fill="none" xmlns="http://www.w3.org/2000/svg">
<rect width="24" height="24" rx="8" fill="#ED1C24"/>
<path d="M8.24143 18C7.85857 18 7.532 17.8803 7.26171 17.6408C6.992 17.4014 6.85714 17.1115 6.85714 16.7711V7.34686H6V6.58592H9.42857V6H14.5714V6.58592H18V7.34686H17.1429V16.7711C17.1429 17.1211 17.0109 17.4133 16.7469 17.6477C16.4823 17.8826 16.1529 18 15.7586 18H8.24143ZM16.2857 7.34686H7.71429V16.7711C7.71429 16.9075 7.76371 17.0197 7.86257 17.1074C7.96143 17.1952 8.08771 17.2391 8.24143 17.2391H15.7586C15.89 17.2391 16.0109 17.1904 16.1211 17.093C16.2309 16.9951 16.2857 16.8878 16.2857 16.7711V7.34686ZM10.1211 15.7172H10.9783V8.86874H10.1211V15.7172ZM13.0217 15.7172H13.8789V8.86874H13.0217V15.7172Z" fill="white"/>
</svg>
