<svg width="20" height="20" viewBox="0 0 20 20" fill="none" xmlns="http://www.w3.org/2000/svg">
<mask id="mask0_1363_1032" style="mask-type:alpha" maskUnits="userSpaceOnUse" x="0" y="0" width="20" height="20">
<rect width="20" height="20" fill="#D9D9D9"/>
</mask>
<g mask="url(#mask0_1363_1032)">
<path d="M4.87435 14.25C5.58268 13.7083 6.37435 13.2812 7.24935 12.9687C8.12435 12.6562 9.04102 12.5 9.99935 12.5C10.9577 12.5 11.8743 12.6562 12.7493 12.9687C13.6243 13.2812 14.416 13.7083 15.1243 14.25C15.6105 13.6805 15.9889 13.0347 16.2598 12.3125C16.5306 11.5902 16.666 10.8194 16.666 9.99996C16.666 8.15274 16.0167 6.57982 14.7181 5.28121C13.4195 3.9826 11.8466 3.33329 9.99935 3.33329C8.15213 3.33329 6.57921 3.9826 5.2806 5.28121C3.98199 6.57982 3.33268 8.15274 3.33268 9.99996C3.33268 10.8194 3.4681 11.5902 3.73893 12.3125C4.00977 13.0347 4.38824 13.6805 4.87435 14.25ZM9.99935 10.8333C9.1799 10.8333 8.48893 10.552 7.92643 9.98954C7.36393 9.42704 7.08268 8.73607 7.08268 7.91663C7.08268 7.09718 7.36393 6.40621 7.92643 5.84371C8.48893 5.28121 9.1799 4.99996 9.99935 4.99996C10.8188 4.99996 11.5098 5.28121 12.0723 5.84371C12.6348 6.40621 12.916 7.09718 12.916 7.91663C12.916 8.73607 12.6348 9.42704 12.0723 9.98954C11.5098 10.552 10.8188 10.8333 9.99935 10.8333ZM9.99935 18.3333C8.84657 18.3333 7.76324 18.1145 6.74935 17.677C5.73546 17.2395 4.85352 16.6458 4.10352 15.8958C3.35352 15.1458 2.75977 14.2638 2.32227 13.25C1.88477 12.2361 1.66602 11.1527 1.66602 9.99996C1.66602 8.84718 1.88477 7.76385 2.32227 6.74996C2.75977 5.73607 3.35352 4.85413 4.10352 4.10413C4.85352 3.35413 5.73546 2.76038 6.74935 2.32288C7.76324 1.88538 8.84657 1.66663 9.99935 1.66663C11.1521 1.66663 12.2355 1.88538 13.2493 2.32288C14.2632 2.76038 15.1452 3.35413 15.8952 4.10413C16.6452 4.85413 17.2389 5.73607 17.6764 6.74996C18.1139 7.76385 18.3327 8.84718 18.3327 9.99996C18.3327 11.1527 18.1139 12.2361 17.6764 13.25C17.2389 14.2638 16.6452 15.1458 15.8952 15.8958C15.1452 16.6458 14.2632 17.2395 13.2493 17.677C12.2355 18.1145 11.1521 18.3333 9.99935 18.3333ZM9.99935 16.6666C10.7355 16.6666 11.4299 16.559 12.0827 16.3437C12.7355 16.1284 13.3327 15.8194 13.8743 15.4166C13.3327 15.0138 12.7355 14.7048 12.0827 14.4895C11.4299 14.2743 10.7355 14.1666 9.99935 14.1666C9.26324 14.1666 8.56879 14.2743 7.91602 14.4895C7.26324 14.7048 6.66602 15.0138 6.12435 15.4166C6.66602 15.8194 7.26324 16.1284 7.91602 16.3437C8.56879 16.559 9.26324 16.6666 9.99935 16.6666ZM9.99935 9.16663C10.3605 9.16663 10.6591 9.04857 10.8952 8.81246C11.1313 8.57635 11.2493 8.27774 11.2493 7.91663C11.2493 7.55552 11.1313 7.2569 10.8952 7.02079C10.6591 6.78468 10.3605 6.66663 9.99935 6.66663C9.63824 6.66663 9.33963 6.78468 9.10352 7.02079C8.8674 7.2569 8.74935 7.55552 8.74935 7.91663C8.74935 8.27774 8.8674 8.57635 9.10352 8.81246C9.33963 9.04857 9.63824 9.16663 9.99935 9.16663Z" fill="#757575"/>
</g>
</svg>
