<svg width="14" height="14" viewBox="0 0 14 14" fill="none" xmlns="http://www.w3.org/2000/svg">
<path id="bedroom_parent" d="M2.1 10.5H3.15V9.45H10.85V10.5H11.9V7.805C11.9 7.56 11.8533 7.32958 11.76 7.11375C11.6667 6.89792 11.5383 6.70833 11.375 6.545V4.9C11.375 4.515 11.2379 4.18542 10.9637 3.91125C10.6896 3.63708 10.36 3.5 9.975 3.5H7.7C7.57167 3.5 7.44917 3.5175 7.3325 3.5525C7.21583 3.5875 7.105 3.64 7 3.71C6.895 3.64 6.78417 3.5875 6.6675 3.5525C6.55083 3.5175 6.42833 3.5 6.3 3.5H4.025C3.64 3.5 3.31042 3.63708 3.03625 3.91125C2.76208 4.18542 2.625 4.515 2.625 4.9V6.545C2.46167 6.70833 2.33333 6.89792 2.24 7.11375C2.14667 7.32958 2.1 7.56 2.1 7.805V10.5ZM3.15 8.4V7.7C3.15 7.50167 3.21708 7.33542 3.35125 7.20125C3.48542 7.06708 3.65167 7 3.85 7H10.15C10.3483 7 10.5146 7.06708 10.6488 7.20125C10.7829 7.33542 10.85 7.50167 10.85 7.7V8.4H3.15ZM3.675 5.95V4.55H6.475V5.95H3.675ZM7.525 5.95V4.55H10.325V5.95H7.525ZM1.4 14C1.015 14 0.685417 13.8629 0.41125 13.5887C0.137083 13.3146 0 12.985 0 12.6V1.4C0 1.015 0.137083 0.685417 0.41125 0.41125C0.685417 0.137083 1.015 0 1.4 0H12.6C12.985 0 13.3146 0.137083 13.5887 0.41125C13.8629 0.685417 14 1.015 14 1.4V12.6C14 12.985 13.8629 13.3146 13.5887 13.5887C13.3146 13.8629 12.985 14 12.6 14H1.4ZM1.4 12.6H12.6V1.4H1.4V12.6Z" fill="white"/>
</svg>
