<svg width="14" height="14" viewBox="0 0 14 14" fill="none" xmlns="http://www.w3.org/2000/svg">
<path id="credit_card" d="M14 1.75V12.25C14 12.7312 13.8629 13.1432 13.5887 13.4859C13.3146 13.8286 12.985 14 12.6 14H1.4C1.015 14 0.685417 13.8286 0.41125 13.4859C0.137083 13.1432 0 12.7312 0 12.25V1.75C0 1.26875 0.137083 0.856771 0.41125 0.514063C0.685417 0.171354 1.015 0 1.4 0H12.6C12.985 0 13.3146 0.171354 13.5887 0.514063C13.8629 0.856771 14 1.26875 14 1.75ZM1.4 3.5H12.6V1.75H1.4V3.5ZM1.4 7V12.25H12.6V7H1.4Z" fill="white"/>
</svg>
