<svg width="14" height="14" viewBox="0 0 14 14" fill="none" xmlns="http://www.w3.org/2000/svg">
<path id="emoji_objects" d="M7 14C6.58161 14 6.20345 13.9271 5.86552 13.7812C5.52759 13.6354 5.26207 13.44 5.06897 13.195C4.53793 13.195 4.08333 13.0579 3.70517 12.7838C3.32701 12.5096 3.13793 12.18 3.13793 11.795V9.31C2.18851 8.855 1.42816 8.25417 0.856897 7.5075C0.285632 6.76083 0 5.95 0 5.075C0 3.66333 0.679885 2.46458 2.03965 1.47875C3.39943 0.492917 5.05287 0 7 0C8.94713 0 10.6006 0.492917 11.9603 1.47875C13.3201 2.46458 14 3.66333 14 5.075C14 5.97333 13.7144 6.79 13.1431 7.525C12.5718 8.26 11.8115 8.855 10.8621 9.31V11.795C10.8621 12.18 10.673 12.5096 10.2948 12.7838C9.91667 13.0579 9.46207 13.195 8.93103 13.195C8.73793 13.44 8.47241 13.6354 8.13448 13.7812C7.79655 13.9271 7.41839 14 7 14ZM5.06897 11.795H8.93103V11.165H5.06897V11.795ZM5.06897 10.465H8.93103V9.8H5.06897V10.465ZM4.87586 8.4H6.27586V6.51L4.15172 4.97L5.16552 4.235L7 5.565L8.83448 4.235L9.84828 4.97L7.72414 6.51V8.4H9.12414C9.9931 8.09667 10.7011 7.65042 11.2483 7.06125C11.7954 6.47208 12.069 5.81 12.069 5.075C12.069 4.04833 11.5782 3.17917 10.5966 2.4675C9.61494 1.75583 8.41609 1.4 7 1.4C5.58391 1.4 4.38506 1.75583 3.40345 2.4675C2.42184 3.17917 1.93103 4.04833 1.93103 5.075C1.93103 5.81 2.2046 6.47208 2.75172 7.06125C3.29885 7.65042 4.0069 8.09667 4.87586 8.4Z" fill="white"/>
</svg>
