<svg width="16" height="20" viewBox="0 0 16 20" fill="none" xmlns="http://www.w3.org/2000/svg">
<path id="restart_alt" d="M7 19.225C4.98333 18.975 3.3125 18.0959 1.9875 16.5875C0.6625 15.0792 0 13.3084 0 11.275C0 10.175 0.216667 9.12086 0.65 8.11252C1.08333 7.10419 1.7 6.22502 2.5 5.47502L3.925 6.90002C3.29167 7.46669 2.8125 8.12502 2.4875 8.87502C2.1625 9.62502 2 10.425 2 11.275C2 12.7417 2.46667 14.0375 3.4 15.1625C4.33333 16.2875 5.53333 16.975 7 17.225V19.225ZM9 19.225V17.225C10.45 16.9584 11.6458 16.2667 12.5875 15.15C13.5292 14.0334 14 12.7417 14 11.275C14 9.60836 13.4167 8.19169 12.25 7.02502C11.0833 5.85836 9.66667 5.27502 8 5.27502H7.925L9.025 6.37502L7.625 7.77502L4.125 4.27502L7.625 0.775024L9.025 2.17502L7.925 3.27502H8C10.2333 3.27502 12.125 4.05002 13.675 5.60002C15.225 7.15002 16 9.04169 16 11.275C16 13.2917 15.3375 15.0542 14.0125 16.5625C12.6875 18.0709 11.0167 18.9584 9 19.225Z" fill="white"/>
</svg>
