<svg width="14" height="14" viewBox="0 0 14 14" fill="none" xmlns="http://www.w3.org/2000/svg">
<path id="shopping_cart" d="M4.20586 14C3.82086 14 3.49128 13.8629 3.21711 13.5887C2.94294 13.3146 2.80586 12.985 2.80586 12.6C2.80586 12.215 2.94294 11.8854 3.21711 11.6112C3.49128 11.3371 3.82086 11.2 4.20586 11.2C4.59086 11.2 4.92044 11.3371 5.19461 11.6112C5.46878 11.8854 5.60586 12.215 5.60586 12.6C5.60586 12.985 5.46878 13.3146 5.19461 13.5887C4.92044 13.8629 4.59086 14 4.20586 14ZM11.2059 14C10.8209 14 10.4913 13.8629 10.2171 13.5887C9.94294 13.3146 9.80586 12.985 9.80586 12.6C9.80586 12.215 9.94294 11.8854 10.2171 11.6112C10.4913 11.3371 10.8209 11.2 11.2059 11.2C11.5909 11.2 11.9204 11.3371 12.1946 11.6112C12.4688 11.8854 12.6059 12.215 12.6059 12.6C12.6059 12.985 12.4688 13.3146 12.1946 13.5887C11.9204 13.8629 11.5909 14 11.2059 14ZM3.61086 2.8L5.29086 6.3H10.1909L12.1159 2.8H3.61086ZM2.94586 1.4H13.2709C13.5392 1.4 13.7434 1.51958 13.8834 1.75875C14.0234 1.99792 14.0292 2.24 13.9009 2.485L11.4159 6.965C11.2875 7.19833 11.1154 7.37917 10.8996 7.5075C10.6838 7.63583 10.4475 7.7 10.1909 7.7H4.97586L4.20586 9.1H12.6059V10.5H4.20586C3.68086 10.5 3.28419 10.2696 3.01586 9.80875C2.74753 9.34792 2.73586 8.89 2.98086 8.435L3.92586 6.72L1.40586 1.4H0.00585938V0H2.28086L2.94586 1.4Z" fill="white"/>
</svg>
