<svg width="14" height="6" viewBox="0 0 14 6" fill="none" xmlns="http://www.w3.org/2000/svg">
<path id="steppers" d="M2.1 5.10002C1.51667 5.10002 1.02083 4.89586 0.6125 4.48752C0.204167 4.07919 0 3.58336 0 3.00002C0 2.41669 0.204167 1.92086 0.6125 1.51252C1.02083 1.10419 1.51667 0.900024 2.1 0.900024C2.68333 0.900024 3.17917 1.10419 3.5875 1.51252C3.99583 1.92086 4.2 2.41669 4.2 3.00002C4.2 3.58336 3.99583 4.07919 3.5875 4.48752C3.17917 4.89586 2.68333 5.10002 2.1 5.10002ZM2.1 3.70002C2.29833 3.70002 2.46458 3.63294 2.59875 3.49877C2.73292 3.36461 2.8 3.19836 2.8 3.00002C2.8 2.80169 2.73292 2.63544 2.59875 2.50127C2.46458 2.36711 2.29833 2.30002 2.1 2.30002C1.90167 2.30002 1.73542 2.36711 1.60125 2.50127C1.46708 2.63544 1.4 2.80169 1.4 3.00002C1.4 3.19836 1.46708 3.36461 1.60125 3.49877C1.73542 3.63294 1.90167 3.70002 2.1 3.70002ZM7 5.10002C6.41667 5.10002 5.92083 4.89586 5.5125 4.48752C5.10417 4.07919 4.9 3.58336 4.9 3.00002C4.9 2.41669 5.10417 1.92086 5.5125 1.51252C5.92083 1.10419 6.41667 0.900024 7 0.900024C7.58333 0.900024 8.07917 1.10419 8.4875 1.51252C8.89583 1.92086 9.1 2.41669 9.1 3.00002C9.1 3.58336 8.89583 4.07919 8.4875 4.48752C8.07917 4.89586 7.58333 5.10002 7 5.10002ZM7 3.70002C7.19833 3.70002 7.36458 3.63294 7.49875 3.49877C7.63292 3.36461 7.7 3.19836 7.7 3.00002C7.7 2.80169 7.63292 2.63544 7.49875 2.50127C7.36458 2.36711 7.19833 2.30002 7 2.30002C6.80167 2.30002 6.63542 2.36711 6.50125 2.50127C6.36708 2.63544 6.3 2.80169 6.3 3.00002C6.3 3.19836 6.36708 3.36461 6.50125 3.49877C6.63542 3.63294 6.80167 3.70002 7 3.70002ZM11.9 5.10002C11.3167 5.10002 10.8208 4.89586 10.4125 4.48752C10.0042 4.07919 9.8 3.58336 9.8 3.00002C9.8 2.41669 10.0042 1.92086 10.4125 1.51252C10.8208 1.10419 11.3167 0.900024 11.9 0.900024C12.4833 0.900024 12.9792 1.10419 13.3875 1.51252C13.7958 1.92086 14 2.41669 14 3.00002C14 3.58336 13.7958 4.07919 13.3875 4.48752C12.9792 4.89586 12.4833 5.10002 11.9 5.10002Z" fill="#FDFDFD"/>
</svg>
