<svg width="14" height="14" viewBox="0 0 14 14" fill="none" xmlns="http://www.w3.org/2000/svg">
<path id="Vector" d="M1.4 14C1.015 14 0.685533 13.8558 0.4116 13.5675C0.137667 13.2791 0.000466667 12.9321 0 12.5263V4.42105C0 4.01579 0.1372 3.66898 0.4116 3.38063C0.686 3.09228 1.01547 2.94786 1.4 2.94737H4.2V1.47368C4.2 1.06842 4.3372 0.721614 4.6116 0.433263C4.886 0.144912 5.21547 0.000491228 5.6 0H8.4C8.785 0 9.1147 0.144421 9.3891 0.433263C9.6635 0.722105 9.80047 1.06891 9.8 1.47368V2.94737H12.6C12.985 2.94737 13.3147 3.09179 13.5891 3.38063C13.8635 3.66947 14.0005 4.01628 14 4.42105V12.5263C14 12.9316 13.863 13.2786 13.5891 13.5675C13.3152 13.8563 12.9855 14.0005 12.6 14H1.4ZM5.6 2.94737H8.4V1.47368H5.6V2.94737ZM12.6 9.57895H9.1V11.0526H4.9V9.57895H1.4V12.5263H12.6V9.57895ZM6.3 9.57895H7.7V8.10526H6.3V9.57895ZM1.4 8.10526H4.9V6.63158H9.1V8.10526H12.6V4.42105H1.4V8.10526Z" fill="white"/>
</svg>
