<svg width="14" height="14" viewBox="0 0 14 14" fill="none" xmlns="http://www.w3.org/2000/svg">
<path id="Vector" d="M12.25 6.63158H1.75V2.94737H12.25M10.9375 11.0526C10.5894 11.0526 10.2556 10.9362 10.0094 10.7289C9.76328 10.5216 9.625 10.2405 9.625 9.94737C9.625 9.65423 9.76328 9.37311 10.0094 9.16583C10.2556 8.95855 10.5894 8.8421 10.9375 8.8421C11.2856 8.8421 11.6194 8.95855 11.8656 9.16583C12.1117 9.37311 12.25 9.65423 12.25 9.94737C12.25 10.2405 12.1117 10.5216 11.8656 10.7289C11.6194 10.9362 11.2856 11.0526 10.9375 11.0526ZM3.0625 11.0526C2.7144 11.0526 2.38056 10.9362 2.13442 10.7289C1.88828 10.5216 1.75 10.2405 1.75 9.94737C1.75 9.65423 1.88828 9.37311 2.13442 9.16583C2.38056 8.95855 2.7144 8.8421 3.0625 8.8421C3.4106 8.8421 3.74444 8.95855 3.99058 9.16583C4.23672 9.37311 4.375 9.65423 4.375 9.94737C4.375 10.2405 4.23672 10.5216 3.99058 10.7289C3.74444 10.9362 3.4106 11.0526 3.0625 11.0526ZM0 10.3158C0 10.9642 0.34125 11.5463 0.875 11.9516V13.2632C0.875 13.4586 0.967187 13.646 1.13128 13.7842C1.29538 13.9224 1.51794 14 1.75 14H2.625C2.85706 14 3.07962 13.9224 3.24372 13.7842C3.40781 13.646 3.5 13.4586 3.5 13.2632V12.5263H10.5V13.2632C10.5 13.4586 10.5922 13.646 10.7563 13.7842C10.9204 13.9224 11.1429 14 11.375 14H12.25C12.4821 14 12.7046 13.9224 12.8687 13.7842C13.0328 13.646 13.125 13.4586 13.125 13.2632V11.9516C13.6587 11.5463 14 10.9642 14 10.3158V2.94737C14 0.368421 10.8675 0 7 0C3.1325 0 0 0.368421 0 2.94737V10.3158Z" fill="white"/>
</svg>
