<svg width="14" height="14" viewBox="0 0 14 14" fill="none" xmlns="http://www.w3.org/2000/svg">
<path id="Vector" d="M4.47436 6.93002C4.68057 7.13647 4.79639 7.41633 4.79639 7.70811C4.79639 7.9999 4.68057 8.27975 4.47436 8.48621L3.75937 9.20264H9.93593C10.228 9.20264 10.508 9.31864 10.7145 9.52513C10.921 9.73162 11.0371 10.0117 11.0371 10.3037C11.0371 10.5957 10.921 10.8758 10.7145 11.0823C10.508 11.2888 10.228 11.4048 9.93593 11.4048H3.75937L4.4751 12.1197C4.68166 12.3263 4.79771 12.6065 4.79771 12.8986C4.79771 13.1907 4.68166 13.4708 4.4751 13.6774C4.26853 13.884 3.98836 14 3.69623 14C3.4041 14 3.12394 13.884 2.91737 13.6774L0.322394 11.0818C0.115965 10.8753 0 10.5953 0 10.3033C0 10.0114 0.115965 9.73137 0.322394 9.52488L2.91737 6.92929C3.01963 6.82697 3.14105 6.7458 3.27469 6.69042C3.40833 6.63504 3.55157 6.60654 3.69623 6.60654C3.8409 6.60654 3.98414 6.63504 4.11778 6.69042C4.25142 6.7458 4.37284 6.82697 4.4751 6.92929M9.52558 0.322845C9.71818 0.130081 9.97542 0.0155774 10.2476 0.00147637C10.5197 -0.0126247 10.7874 0.0746785 10.9989 0.246504L11.0826 0.322111L13.6775 2.91771C13.8702 3.11039 13.9846 3.36767 13.9986 3.63979C14.0125 3.91191 13.9251 4.17955 13.7532 4.39094L13.6775 4.47463L11.0826 7.07022C10.8835 7.27227 10.614 7.38968 10.3305 7.39799C10.0469 7.4063 9.77112 7.30485 9.56053 7.11481C9.34993 6.92476 9.22081 6.66077 9.20008 6.37787C9.17934 6.09496 9.2686 5.81497 9.44923 5.59625L9.52485 5.51257L10.2406 4.79761H4.06328C3.77909 4.79957 3.50515 4.69159 3.29874 4.49624C3.09234 4.30089 2.96946 4.03331 2.95581 3.74946C2.94216 3.4656 3.03879 3.18746 3.22549 2.97321C3.41219 2.75896 3.6745 2.62518 3.95757 2.59986L4.06328 2.59619H10.2398L9.52411 1.8805C9.42179 1.77824 9.34062 1.65683 9.28524 1.5232C9.22986 1.38956 9.20135 1.24633 9.20135 1.10167C9.20135 0.957016 9.22986 0.81378 9.28524 0.680145C9.34062 0.546511 9.42179 0.425098 9.52411 0.322845" fill="white"/>
</svg>
