<svg width="14" height="14" viewBox="0 0 14 14" fill="none" xmlns="http://www.w3.org/2000/svg">
<path id="Vector" d="M1.01111 0L0.777778 0.365217C0.311111 1.15652 0 2.25217 0 3.65217C0 6.45217 2.72222 8.76522 6.22222 9.06956V12.7826H2.33333V14H11.6667V12.7826H7.77778V9.06956C11.2778 8.76522 14 6.45217 14 3.65217C14 2.25217 13.6889 1.15652 13.2222 0.365217L13.0667 0H1.01111ZM2.02222 1.21739H11.9778C12.2889 1.94783 12.4444 2.8 12.4444 3.65217C12.4444 4.93043 11.7444 6.02609 10.6556 6.81739L10.5778 6.87826C10.5 6.93913 10.4222 7 10.3444 7C10.2667 7.06087 10.1889 7.06087 10.1889 7.12174C10.1111 7.18261 10.0333 7.18261 9.95555 7.24348C9.87778 7.30435 9.8 7.30435 9.72222 7.36522C9.64444 7.36522 9.56667 7.42609 9.56667 7.42609C9.48889 7.48696 9.41111 7.48696 9.25556 7.54783C9.17778 7.54783 9.1 7.6087 9.1 7.6087C9.02222 7.66956 8.86667 7.66957 8.78889 7.66957C8.71111 7.66957 8.71111 7.73043 8.63333 7.73043C8.55556 7.73043 8.4 7.7913 8.32222 7.7913C8.24444 7.7913 8.24444 7.7913 8.16667 7.85217H7C3.96667 7.85217 1.55556 5.96522 1.55556 3.5913V2.67826L2.02222 1.21739Z" fill="white"/>
</svg>
